<?xml version="1.0" encoding="utf-8"?>
<!-- Generator: Adobe Illustrator 16.0.3, SVG Export Plug-In . SVG Version: 6.00 Build 0)  -->
<!DOCTYPE svg PUBLIC "-//W3C//DTD SVG 1.1 Tiny//EN" "http://www.w3.org/Graphics/SVG/1.1/DTD/svg11-tiny.dtd">
<svg version="1.1" baseProfile="tiny" id="Layer_1" xmlns="http://www.w3.org/2000/svg" xmlns:xlink="http://www.w3.org/1999/xlink"
	 x="0px" y="0px" width="160px" height="47px" viewBox="0 0 160 47" xml:space="preserve">
<g>
	<path fill="#FFFFFF" d="M29.767,39.974c-0.741,0-1.354,0.276-1.849,0.829c-0.487,0.547-0.731,1.189-0.731,1.939
		c0,0.543,0.166,1.001,0.488,1.372c0.332,0.371,0.769,0.553,1.304,0.553c0.779,0,1.412-0.23,1.9-0.688l-0.187-0.381
		c-0.379,0.36-1.042,0.593-1.587,0.593c-0.865,0-1.382-0.623-1.382-1.508c0-0.573,0.185-1.091,0.555-1.559
		c0.379-0.467,0.848-0.699,1.402-0.699c0.576,0,1.012,0.223,1.315,0.659l0.371-0.331C31.091,40.25,30.4,39.974,29.767,39.974z"/>
	<path fill="#FFFFFF" d="M32.631,37.853l0.03,0.322c0,0.095-0.01,0.224-0.03,0.371l-0.837,5.276
		c-0.03,0.146-0.038,0.292-0.038,0.438c0,0.137,0.008,0.241,0.028,0.312h0.517l-0.03-0.321c0-0.155,0.011-0.271,0.021-0.361
		l0.836-5.276c0.03-0.156,0.038-0.303,0.038-0.447c0-0.137-0.008-0.242-0.028-0.312H32.631z"/>
	<path fill="#FFFFFF" d="M34.97,38.019c-0.243,0-0.486,0.241-0.486,0.507c0,0.192,0.146,0.349,0.35,0.349
		c0.264,0,0.487-0.232,0.487-0.494C35.321,38.185,35.166,38.019,34.97,38.019z"/>
	<path fill="#FFFFFF" d="M34.289,40.044l0.029,0.321c0,0.105-0.01,0.222-0.029,0.372l-0.488,3.085
		c-0.028,0.146-0.038,0.292-0.038,0.438c0,0.137,0.009,0.241,0.028,0.312h0.517l-0.03-0.321c0-0.155,0.011-0.271,0.021-0.361
		l0.488-3.086c0.027-0.155,0.038-0.302,0.038-0.447c0-0.136-0.011-0.241-0.028-0.312H34.289z"/>
	<path fill="#FFFFFF" d="M38.271,39.974c-0.593,0-1.178,0.342-1.517,0.85h-0.011c0.028-0.206,0.049-0.362,0.049-0.458
		c0-0.136-0.011-0.245-0.03-0.312h-0.505l0.029,0.321c0,0.096-0.01,0.222-0.029,0.368l-0.613,3.828h0.505l0.372-2.286
		c0.078-0.519,0.251-0.945,0.515-1.306c0.272-0.362,0.644-0.549,1.121-0.549c0.613,0,0.885,0.296,0.885,0.919
		c0,0.137-0.019,0.33-0.059,0.594l-0.301,1.879c-0.03,0.146-0.04,0.292-0.04,0.438c0,0.137,0.01,0.241,0.03,0.312h0.515
		l-0.027-0.321c0-0.155,0.01-0.271,0.02-0.361l0.32-1.995c0.04-0.271,0.06-0.478,0.06-0.623
		C39.558,40.405,39.129,39.974,38.271,39.974z"/>
	<path fill="#FFFFFF" d="M41.109,40.044l0.027,0.321c0,0.105-0.008,0.222-0.027,0.372l-0.487,3.085
		c-0.03,0.146-0.038,0.292-0.038,0.438c0,0.137,0.008,0.241,0.028,0.312h0.517l-0.03-0.321c0-0.155,0.011-0.271,0.021-0.361
		l0.486-3.086c0.029-0.155,0.04-0.302,0.04-0.447c0-0.136-0.011-0.241-0.03-0.312H41.109z"/>
	<path fill="#FFFFFF" d="M41.79,38.019c-0.244,0-0.487,0.241-0.487,0.507c0,0.192,0.146,0.349,0.352,0.349
		c0.261,0,0.486-0.232,0.486-0.494C42.141,38.185,41.986,38.019,41.79,38.019z"/>
	<path fill="#FFFFFF" d="M46.698,40.13c-0.068,0.12-0.156,0.401-0.204,0.684l-0.01,0.06h-0.01c-0.302-0.597-0.8-0.899-1.471-0.899
		c-0.741,0-1.354,0.276-1.832,0.829c-0.477,0.547-0.719,1.206-0.719,1.976c0,1.16,0.662,1.899,1.83,1.899
		c0.69,0,1.266-0.302,1.733-0.905h0.011l-0.312,1.95c-0.05,0.271-0.118,0.503-0.223,0.699h0.505l0.04-0.076
		c0.068-0.12,0.156-0.402,0.204-0.684l0.779-4.909c0.04-0.262,0.117-0.493,0.224-0.699h-0.505L46.698,40.13z M45.763,43.501
		c-0.359,0.457-0.827,0.689-1.412,0.689c-0.856,0-1.352-0.604-1.352-1.469c0-0.603,0.173-1.14,0.535-1.598
		c0.359-0.457,0.837-0.693,1.422-0.693c0.857,0,1.353,0.607,1.353,1.473C46.309,42.506,46.125,43.044,45.763,43.501z"/>
	<path fill="#FFFFFF" d="M51.93,40.044h-0.515l-0.379,2.433c-0.078,0.478-0.255,0.889-0.528,1.23
		c-0.261,0.337-0.623,0.503-1.071,0.503c-0.593,0-0.894-0.292-0.894-0.885c0-0.156,0.018-0.321,0.048-0.507l0.322-2.035
		c0.029-0.156,0.037-0.302,0.037-0.428c0-0.136-0.008-0.241-0.027-0.312h-0.507l0.029,0.321c0,0.105-0.01,0.222-0.029,0.372
		l-0.322,2.005c-0.038,0.282-0.059,0.503-0.059,0.653c0,0.845,0.419,1.271,1.257,1.271c0.633,0,1.138-0.261,1.519-0.799
		c-0.02,0.1-0.03,0.227-0.03,0.392c0,0.137,0.011,0.241,0.03,0.312h0.516l-0.03-0.321c0-0.155,0.01-0.271,0.02-0.361L51.93,40.044z"
		/>
	<path fill="#FFFFFF" d="M54.144,42.486c1.625,0,2.455-0.623,2.455-1.393c0-0.612-0.528-1.12-1.412-1.12
		c-0.673,0-1.256,0.267-1.774,0.8c-0.505,0.526-0.759,1.189-0.759,1.979c0,1.156,0.653,1.915,1.713,1.915
		c0.76,0,1.297-0.241,1.598-0.446c0.244-0.156,0.271-0.196,0.312-0.232l-0.176-0.361l-0.04,0.03
		c-0.135,0.135-0.759,0.553-1.568,0.553c-0.826,0-1.304-0.522-1.304-1.412c0-0.115,0.01-0.242,0.03-0.368
		C53.559,42.466,53.862,42.486,54.144,42.486z M53.89,40.919c0.322-0.338,0.711-0.504,1.189-0.504c0.585,0,1.002,0.302,1.002,0.659
		c0,0.322-0.184,0.558-0.556,0.723c-0.359,0.166-0.816,0.242-1.352,0.242c-0.312,0-0.606-0.02-0.867-0.047
		C53.385,41.612,53.578,41.25,53.89,40.919z"/>
	<path fill="#FFFFFF" d="M61.946,39.964c-0.593,0-1.178,0.341-1.517,0.85h-0.01l0.349-2.201c0.03-0.156,0.04-0.303,0.04-0.447
		c0-0.137-0.01-0.242-0.03-0.312h-0.505l0.028,0.322c0,0.095-0.01,0.224-0.028,0.371l-0.955,6.025h0.505l0.362-2.24
		c0.078-0.514,0.251-0.964,0.536-1.343c0.282-0.381,0.651-0.563,1.128-0.563c0.585,0,0.877,0.312,0.877,0.925
		c0,0.116-0.02,0.303-0.058,0.544l-0.302,1.929c-0.029,0.146-0.039,0.292-0.039,0.438c0,0.137,0.01,0.241,0.029,0.312h0.516
		l-0.028-0.321c0-0.155,0.008-0.271,0.017-0.361l0.322-2.016c0.04-0.281,0.059-0.497,0.059-0.633
		C63.242,40.395,62.813,39.964,61.946,39.964z"/>
	<path fill="#FFFFFF" d="M68.211,40.873h-0.01c-0.302-0.597-0.8-0.899-1.471-0.899c-0.741,0-1.354,0.276-1.831,0.829
		c-0.477,0.547-0.72,1.206-0.72,1.976c0,1.16,0.662,1.899,1.83,1.899c0.69,0,1.266-0.302,1.734-0.905h0.01l-0.021,0.105
		c-0.02,0.141-0.029,0.267-0.029,0.382c0,0.137,0.009,0.241,0.029,0.312h0.516l-0.028-0.321c0-0.166,0.01-0.302,0.028-0.418
		l0.604-3.778h-0.517L68.211,40.873z M67.489,43.501c-0.359,0.457-0.827,0.689-1.412,0.689c-0.856,0-1.352-0.604-1.352-1.469
		c0-0.603,0.174-1.14,0.536-1.598c0.359-0.457,0.836-0.693,1.419-0.693c0.858,0,1.355,0.607,1.355,1.473
		C68.036,42.506,67.851,43.044,67.489,43.501z"/>
	<path fill="#FFFFFF" d="M73.655,40.044h-0.515l-0.379,2.433c-0.078,0.478-0.254,0.889-0.528,1.23
		c-0.261,0.337-0.623,0.503-1.07,0.503c-0.593,0-0.895-0.292-0.895-0.885c0-0.156,0.018-0.321,0.048-0.507l0.322-2.035
		c0.027-0.156,0.037-0.302,0.037-0.428c0-0.136-0.01-0.241-0.027-0.312h-0.507l0.029,0.321c0,0.105-0.01,0.222-0.029,0.372
		l-0.322,2.005c-0.038,0.282-0.058,0.503-0.058,0.653c0,0.845,0.419,1.271,1.257,1.271c0.633,0,1.138-0.261,1.52-0.799
		c-0.02,0.1-0.03,0.227-0.03,0.392c0,0.137,0.011,0.241,0.03,0.312h0.516l-0.03-0.321c0-0.155,0.01-0.271,0.02-0.361L73.655,40.044z
		"/>
	<path fill="#FFFFFF" d="M75.839,39.391c0.03-0.155,0.04-0.302,0.04-0.447c0-0.136-0.01-0.241-0.029-0.312h-0.506l0.028,0.321
		c0,0.096-0.01,0.226-0.028,0.372l-0.117,0.738h-0.661l-0.07,0.478h0.653l-0.166,0.915c-0.087,0.477-0.166,0.924-0.224,1.322
		c-0.058,0.4-0.088,0.743-0.088,1.004c0,0.548,0.274,0.885,0.819,0.885c0.282,0,0.515-0.046,0.681-0.146l0.03-0.457
		c-0.156,0.09-0.322,0.126-0.498,0.126c-0.332,0-0.497-0.202-0.497-0.613c0-0.126,0.03-0.358,0.088-0.709l0.362-2.327h1.1
		l0.078-0.478h-1.1L75.839,39.391z"/>
	<path fill="#FFFFFF" d="M78.412,42.486c1.627,0,2.453-0.623,2.453-1.393c0-0.612-0.524-1.12-1.41-1.12
		c-0.671,0-1.256,0.267-1.772,0.8c-0.507,0.526-0.761,1.189-0.761,1.979c0,1.156,0.653,1.915,1.713,1.915
		c0.762,0,1.297-0.241,1.598-0.446c0.244-0.156,0.273-0.196,0.311-0.232l-0.175-0.361l-0.038,0.03
		c-0.136,0.135-0.76,0.553-1.568,0.553c-0.828,0-1.304-0.522-1.304-1.412c0-0.115,0.008-0.242,0.028-0.368
		C77.828,42.466,78.129,42.486,78.412,42.486z M78.16,40.919c0.32-0.338,0.709-0.504,1.187-0.504c0.585,0,1.004,0.302,1.004,0.659
		c0,0.322-0.186,0.558-0.556,0.723c-0.361,0.166-0.818,0.242-1.354,0.242c-0.312,0-0.604-0.02-0.867-0.047
		C77.653,41.612,77.848,41.25,78.16,40.919z"/>
	<path fill="#FFFFFF" d="M86.45,39.974c-0.673,0-1.266,0.303-1.764,0.899h-0.011l0.011-0.06c0.029-0.156,0.04-0.303,0.04-0.448
		c0-0.136-0.011-0.245-0.03-0.312h-0.507l0.029,0.321c0,0.096-0.01,0.212-0.029,0.362l-0.779,4.935
		c-0.03,0.146-0.04,0.292-0.04,0.438c0,0.136,0.01,0.246,0.03,0.312h0.517l-0.03-0.322c0-0.156,0.011-0.271,0.021-0.357l0.312-1.97
		h0.011c0.271,0.604,0.759,0.905,1.452,0.905c0.769,0,1.382-0.271,1.858-0.825c0.478-0.558,0.709-1.23,0.709-2.01
		C88.249,40.717,87.57,39.974,86.45,39.974z M87.169,43.501c-0.361,0.457-0.829,0.689-1.412,0.689c-0.864,0-1.361-0.583-1.361-1.469
		c0-0.603,0.175-1.14,0.532-1.598c0.361-0.457,0.84-0.693,1.423-0.693c0.869,0,1.365,0.587,1.365,1.473
		C87.716,42.506,87.53,43.044,87.169,43.501z"/>
	<path fill="#FFFFFF" d="M90.474,42.486c1.628,0,2.452-0.623,2.452-1.393c0-0.612-0.523-1.12-1.412-1.12
		c-0.669,0-1.256,0.267-1.77,0.8c-0.507,0.526-0.76,1.189-0.76,1.979c0,1.156,0.65,1.915,1.715,1.915
		c0.759,0,1.293-0.241,1.594-0.446c0.246-0.156,0.275-0.196,0.312-0.232l-0.176-0.361l-0.036,0.03
		c-0.136,0.135-0.759,0.553-1.568,0.553c-0.827,0-1.306-0.522-1.306-1.412c0-0.115,0.01-0.242,0.03-0.368
		C89.891,42.466,90.191,42.486,90.474,42.486z M90.222,40.919c0.322-0.338,0.709-0.504,1.188-0.504c0.583,0,1.004,0.302,1.004,0.659
		c0,0.322-0.187,0.558-0.558,0.723c-0.361,0.166-0.818,0.242-1.352,0.242c-0.312,0-0.604-0.02-0.869-0.047
		C89.715,41.612,89.91,41.25,90.222,40.919z"/>
	<path fill="#FFFFFF" d="M96.375,40.551l0.126-0.507c-0.146-0.05-0.301-0.08-0.467-0.08c-0.553,0-0.961,0.306-1.227,0.899
		l0.011-0.05c0.029-0.156,0.04-0.303,0.04-0.448c0-0.136-0.011-0.245-0.03-0.312H94.32l0.029,0.321c0,0.096-0.01,0.212-0.029,0.362
		l-0.613,3.834h0.507l0.393-2.433c0.115-0.683,0.457-1.668,1.302-1.668c0.196,0,0.342,0.03,0.427,0.08H96.375z"/>
	<path fill="#FFFFFF" d="M99.006,40.063h-1.101l0.05-0.361l0.06-0.417c0.036-0.196,0.156-0.583,0.282-0.739
		c0.215-0.276,0.623-0.441,1.13-0.236l0.116-0.457c-0.09-0.069-0.282-0.096-0.603-0.096c-0.559,0-0.955,0.282-1.201,0.835
		c-0.115,0.266-0.231,0.759-0.337,1.472h-0.653l-0.08,0.478h0.653l-0.829,5.182c-0.046,0.271-0.116,0.503-0.222,0.699h0.508
		l0.046-0.076c0.05-0.12,0.146-0.402,0.194-0.684l0.81-5.121h1.101L99.006,40.063z"/>
	<path fill="#FFFFFF" d="M101.423,39.974c-0.749,0-1.372,0.276-1.879,0.829c-0.507,0.547-0.759,1.196-0.759,1.949
		c0,0.563,0.176,1.021,0.522,1.382c0.353,0.358,0.81,0.533,1.376,0.533c0.749,0,1.372-0.271,1.869-0.805
		c0.505-0.547,0.76-1.2,0.76-1.949c0-0.563-0.176-1.03-0.527-1.393C102.435,40.16,101.977,39.974,101.423,39.974z M102.202,43.511
		c-0.382,0.457-0.869,0.68-1.442,0.68c-0.885,0-1.432-0.623-1.432-1.508c0-0.594,0.196-1.11,0.577-1.568
		c0.378-0.457,0.865-0.684,1.448-0.684c0.889,0,1.432,0.617,1.432,1.502C102.785,42.526,102.589,43.054,102.202,43.511z"/>
	<path fill="#FFFFFF" d="M105.135,40.863l0.011-0.05c0.029-0.156,0.04-0.303,0.04-0.448c0-0.136-0.011-0.245-0.03-0.312h-0.508
		l0.029,0.321c0,0.096-0.01,0.212-0.029,0.362l-0.613,3.834h0.508l0.388-2.433c0.119-0.683,0.461-1.668,1.306-1.668
		c0.196,0,0.342,0.03,0.427,0.08h0.04l0.126-0.507c-0.146-0.05-0.301-0.08-0.467-0.08C105.809,39.964,105.396,40.27,105.135,40.863z
		"/>
	<path fill="#FFFFFF" d="M112.071,39.974c-0.613,0-1.171,0.382-1.521,0.926c-0.106-0.613-0.483-0.926-1.137-0.926
		c-0.558,0-1.151,0.371-1.432,0.85h-0.011c0.03-0.196,0.051-0.353,0.051-0.458c0-0.136-0.011-0.245-0.03-0.312h-0.508l0.029,0.321
		c0,0.096,0,0.176-0.01,0.232l-0.633,3.964h0.507l0.378-2.356c0.07-0.458,0.246-0.875,0.518-1.235
		c0.271-0.362,0.623-0.549,1.041-0.549c0.497,0,0.753,0.307,0.753,0.899c0,0.146-0.021,0.312-0.05,0.497l-0.438,2.744h0.515
		l0.37-2.356c0.07-0.458,0.242-0.875,0.518-1.235c0.271-0.362,0.623-0.549,1.041-0.549c0.497,0,0.749,0.307,0.749,0.899
		c0,0.186-0.01,0.35-0.036,0.497l-0.322,1.995c-0.029,0.146-0.04,0.292-0.04,0.438c0,0.137,0.011,0.241,0.03,0.312h0.514
		l-0.025-0.321c0-0.155,0.006-0.271,0.015-0.361l0.332-2.062c0.03-0.205,0.05-0.401,0.05-0.567
		C113.287,40.405,112.881,39.974,112.071,39.974z"/>
	<path fill="#FFFFFF" d="M118.237,40.873h-0.01c-0.303-0.597-0.8-0.899-1.469-0.899c-0.743,0-1.355,0.276-1.833,0.829
		c-0.474,0.547-0.719,1.206-0.719,1.976c0,1.16,0.663,1.899,1.829,1.899c0.692,0,1.266-0.302,1.732-0.905h0.011l-0.021,0.105
		c-0.019,0.141-0.024,0.267-0.024,0.382c0,0.137,0.006,0.241,0.024,0.312h0.519l-0.03-0.321c0-0.166,0.01-0.302,0.03-0.418
		l0.603-3.778h-0.517L118.237,40.873z M117.518,43.501c-0.361,0.457-0.829,0.689-1.412,0.689c-0.858,0-1.352-0.604-1.352-1.469
		c0-0.603,0.172-1.14,0.533-1.598c0.361-0.457,0.839-0.693,1.422-0.693c0.859,0,1.353,0.607,1.353,1.473
		C118.062,42.506,117.879,43.044,117.518,43.501z"/>
	<path fill="#FFFFFF" d="M122.234,39.974c-0.594,0-1.18,0.342-1.521,0.85h-0.01c0.029-0.206,0.05-0.362,0.05-0.458
		c0-0.136-0.011-0.245-0.03-0.312h-0.503l0.025,0.321c0,0.096-0.01,0.222-0.025,0.368l-0.613,3.828h0.503l0.372-2.286
		c0.075-0.519,0.251-0.945,0.517-1.306c0.271-0.362,0.643-0.549,1.116-0.549c0.617,0,0.89,0.296,0.89,0.919
		c0,0.137-0.021,0.33-0.061,0.594l-0.302,1.879c-0.03,0.146-0.04,0.292-0.04,0.438c0,0.137,0.01,0.241,0.03,0.312h0.518
		l-0.029-0.321c0-0.155,0.01-0.271,0.02-0.361l0.321-1.995c0.04-0.271,0.056-0.478,0.056-0.623
		C123.517,40.405,123.09,39.974,122.234,39.974z"/>
	<path fill="#FFFFFF" d="M126.996,39.974c-0.739,0-1.353,0.276-1.849,0.829c-0.487,0.547-0.729,1.189-0.729,1.939
		c0,0.543,0.166,1.001,0.487,1.372c0.329,0.371,0.769,0.553,1.302,0.553c0.779,0,1.412-0.23,1.9-0.688l-0.187-0.381
		c-0.378,0.36-1.041,0.593-1.588,0.593c-0.865,0-1.382-0.623-1.382-1.508c0-0.573,0.186-1.091,0.557-1.559
		c0.378-0.467,0.846-0.699,1.402-0.699c0.573,0,1.011,0.223,1.312,0.659l0.371-0.331C128.322,40.25,127.629,39.974,126.996,39.974z"
		/>
	<path fill="#FFFFFF" d="M132.276,43.657c-0.136,0.135-0.759,0.553-1.568,0.553c-0.824,0-1.302-0.522-1.302-1.412
		c0-0.115,0.01-0.242,0.03-0.368c0.337,0.036,0.642,0.057,0.924,0.057c1.624,0,2.453-0.623,2.453-1.393
		c0-0.612-0.527-1.12-1.412-1.12c-0.673,0-1.256,0.267-1.774,0.8c-0.503,0.526-0.759,1.189-0.759,1.979
		c0,1.156,0.653,1.915,1.714,1.915c0.76,0,1.297-0.241,1.599-0.446c0.241-0.156,0.271-0.196,0.311-0.232l-0.176-0.361
		L132.276,43.657z M130.105,40.919c0.321-0.338,0.713-0.504,1.19-0.504c0.583,0,1,0.302,1,0.659c0,0.322-0.186,0.558-0.554,0.723
		c-0.36,0.166-0.818,0.242-1.352,0.242c-0.312,0-0.607-0.02-0.869-0.047C129.602,41.612,129.793,41.25,130.105,40.919z"/>
</g>
<g>
	<polygon fill="#FFFFFF" points="5.671,24.295 1.326,12.971 0,12.971 5.009,26.398 6.354,26.398 11.343,12.971 10.018,12.971 	"/>
	<polygon fill="#FFFFFF" points="16.232,20.457 21.807,20.457 21.807,19.169 16.232,19.169 16.232,14.257 22.607,14.257 
		22.607,12.971 14.947,12.971 14.947,26.398 22.819,26.398 22.819,25.114 16.232,25.114 	"/>
	<polygon fill="#FFFFFF" points="29.073,12.971 27.786,12.971 27.786,26.398 34.764,26.398 34.764,25.114 29.073,25.114 	"/>
	<path fill="#FFFFFF" d="M44.488,12.815c-3.801,0-6.745,3.081-6.745,6.899c0,3.801,2.943,6.88,6.745,6.88
		c3.819,0,6.762-3.079,6.762-6.88C51.25,15.896,48.307,12.815,44.488,12.815z M44.488,25.308c-3.102,0-5.459-2.494-5.459-5.593
		c0-3.097,2.358-5.612,5.459-5.612c3.098,0,5.475,2.515,5.475,5.612C49.963,22.813,47.586,25.308,44.488,25.308z"/>
</g>
<g>
	<path fill="#FFDA00" d="M63.741,12.815c-3.82,0-6.781,3.081-6.781,6.899c0,3.801,2.961,6.88,6.781,6.88
		c3.84,0,6.822-3.079,6.822-6.88C70.563,15.896,67.582,12.815,63.741,12.815z M63.741,24.568c-2.65,0-4.718-2.163-4.718-4.854
		c0-2.688,2.067-4.871,4.718-4.871c2.67,0,4.735,2.183,4.735,4.871C68.477,22.405,66.411,24.568,63.741,24.568z"/>
	<path fill="#FFDA00" d="M80.577,12.971h-5.398v13.427h2.085V21.47h3.313c2.905,0,4.092-2.087,4.092-4.229
		C84.669,15.096,83.481,12.971,80.577,12.971z M80.46,19.579h-3.197v-4.698h3.274c1.44,0,2.064,1.228,2.064,2.359
		C82.602,18.39,81.958,19.579,80.46,19.579z"/>
	<polygon fill="#FFDA00" points="87.743,14.901 91.702,14.901 91.702,26.398 93.809,26.398 93.809,14.901 97.762,14.901 
		97.762,12.971 87.743,12.971 	"/>
	<rect x="102.008" y="12.971" fill="#FFDA00" width="2.067" height="13.427"/>
	<polygon fill="#FFDA00" points="121.359,12.971 116.798,22.541 112.239,12.971 110.406,12.971 108.77,26.398 110.837,26.398 
		111.984,16.811 115.941,24.9 117.697,24.9 121.635,16.811 122.781,26.398 124.849,26.398 123.211,12.971 	"/>
	<path fill="#FFDA00" d="M137.276,21.741c0,1.736-1.342,2.866-2.883,2.866c-1.538,0-2.884-1.13-2.884-2.866v-8.77h-2.104v8.77
		c0,2.942,2.299,4.854,4.988,4.854c2.673,0,4.97-1.911,4.97-4.854v-8.77h-2.087V21.741z"/>
	<polygon fill="#FFDA00" points="158.36,12.971 156.51,12.971 151.953,22.541 147.392,12.971 145.556,12.971 143.922,26.398 
		145.989,26.398 147.136,16.811 151.093,24.9 152.849,24.9 156.786,16.811 157.933,26.398 160,26.398 	"/>
</g>
<g>
	<path fill="#FFFFFF" d="M57.231,6.135c-2.411-1.123-9.68-1.798-18.035,5.193c0,0,10.813-4.478,14.815,6.548
		c0.936-4.259,3.085-6.605,6.994-7.475c2.964-0.658,4.555-0.238,7.268-1.363C65.038,9.161,61.738,8.232,57.231,6.135z"/>
	<path fill="#FFFFFF" d="M59.169,5.249c1.385,0.081,2.579-0.979,2.658-2.364c0.081-1.39-0.981-2.58-2.366-2.66
		c-1.39-0.082-2.938,0.601-3.786,1.938C55.595,3.549,57.779,5.168,59.169,5.249z"/>
</g>
</svg>
