<?xml version="1.0" encoding="utf-8"?>
<!-- Generator: Adobe Illustrator 19.1.1, SVG Export Plug-In . SVG Version: 6.00 Build 0)  -->
<svg version="1.1" id="Layer_1" xmlns="http://www.w3.org/2000/svg" xmlns:xlink="http://www.w3.org/1999/xlink" x="0px" y="0px"
	 viewBox="0 0 685.1 170.6" style="enable-background:new 0 0 685.1 170.6;" xml:space="preserve">
<style type="text/css">
	.st0{clip-path:url(#SVGID_2_);}
	.st1{clip-path:url(#SVGID_4_);fill:#AD1F23;}
	.st2{clip-path:url(#SVGID_4_);}
	.st3{clip-path:url(#SVGID_4_);fill:#211819;}
</style>
<g>
	<g>
		<defs>
			<rect id="SVGID_1_" width="685.1" height="170.6"/>
		</defs>
		<clipPath id="SVGID_2_">
			<use xlink:href="#SVGID_1_"  style="overflow:visible;"/>
		</clipPath>
		<g class="st0">
			<defs>
				<rect id="SVGID_3_" x="-73.2" y="-10" width="825.1" height="209.7"/>
			</defs>
			<clipPath id="SVGID_4_">
				<use xlink:href="#SVGID_3_"  style="overflow:visible;"/>
			</clipPath>
			<path class="st1" d="M341.1,70.6c0,0-7,45.6-7.8,51.6c-1.6,12.1,9.9,17,20.3,17c26.1,0,56.3,0,56.3,0c-0.6,4-0.7,5.2-1.4,9.9
				c-0.9,5.9-2.9,7.6-8,7.6c-14.4,0.2-65.2,0.1-65.2,0.1l-2,13.7c0,0,78-0.5,86.5-0.5c11.9,0,15.7-4.3,17.1-14
				c3.6-24.1,13.2-85.5,13.2-85.5h-29.1c0,0-7,45.7-7.8,50.2c-0.6,3.7-1.8,7.7-8,7.6c-4.3,0-40.9,0.1-40.9,0.1s-9.5,0.8-8.1-7.6
				c2.8-17.3,7.8-50.3,7.8-50.3H341.1"/>
			<path class="st1" d="M450.2,138.6h28.1l10-56.8h45.3c4.8,0,6.2,2.8,5.2,7.8l-6.9,49h26.7c0,0,6.6-43,7.4-49
				c1.4-10.9-6-19-18.1-19h-87.4L450.2,138.6"/>
			<path class="st1" d="M284.4,92.4c0,0,18.8-0.2,26.1-0.2c12.1,0,19.2-2.7,20.9-13.3c1.3-8.4,2.3-17.1,5.1-33.1
				c1.9-11.2-5.3-17.9-15.5-17.9h-152l-18.2,114h34.5l7.7-49.7h49l36.6,65l40,0.1L284.4,92.4 M194.7,81.1l3.9-26.8h102.6
				c5.1,0,5.9,4.4,5.9,4.4s-1.9,12.4-2.6,16.3c-0.6,3-2,6.2-9.8,6.1H194.7z"/>
			<path class="st2" d="M365.1,64.8c-1.8,0.7-4.2,1.1-7.1,1.1c-3.8,0-6.8-0.9-8.9-2.8s-3.3-4.4-3.3-7.5c0-3.3,1.2-6,3.7-8.1
				c2.4-2.1,5.6-3.1,9.5-3.1c2.4,0,4.4,0.3,6.1,0.8v4.5c-1.7-0.8-3.5-1.2-5.7-1.2c-2.3,0-4.2,0.6-5.6,1.8c-1.4,1.2-2.1,2.9-2.1,5
				c0,2,0.7,3.6,2,4.8c1.3,1.2,3.2,1.8,5.4,1.8c2.2,0,4.2-0.4,6-1.3V64.8"/>
			<path class="st2" d="M404.2,44.8l-8,13.4v7.4h-5.6v-7.3l-7.8-13.5h6.4l4,7.7c0.1,0.1,0.3,0.7,0.6,1.7h0.1
				c0.1-0.7,0.3-1.2,0.5-1.6l4-7.8H404.2"/>
			<path class="st2" d="M441,64.8c-1.8,0.7-4.2,1.1-7.1,1.1c-3.8,0-6.8-0.9-8.9-2.8c-2.2-1.9-3.3-4.4-3.3-7.5c0-3.3,1.2-6,3.7-8.1
				c2.4-2.1,5.6-3.1,9.5-3.1c2.4,0,4.4,0.3,6.1,0.8v4.5c-1.7-0.8-3.5-1.2-5.7-1.2c-2.3,0-4.2,0.6-5.6,1.8c-1.4,1.2-2.1,2.9-2.1,5
				c0,2,0.7,3.6,2,4.8c1.3,1.2,3.2,1.8,5.4,1.8c2.2,0,4.2-0.4,6-1.3V64.8"/>
			<polygon class="st2" points="476.2,65.5 461.5,65.5 461.5,44.8 467.1,44.8 467.1,61.7 476.2,61.7 			"/>
			<polygon class="st2" points="510.6,65.5 495.8,65.5 495.8,44.8 510,44.8 510,48.6 501.4,48.6 501.4,53.2 509.4,53.2 509.4,57 
				501.4,57 501.4,61.7 510.6,61.7 			"/>
			<path class="st2" d="M529.7,64.7v-4.6c1,0.7,2.1,1.2,3.3,1.6c1.2,0.4,2.4,0.5,3.5,0.5c0.7,0,1.3-0.1,1.8-0.2
				c0.5-0.1,1-0.3,1.3-0.4c0.4-0.2,0.6-0.4,0.8-0.7c0.2-0.3,0.3-0.5,0.3-0.8c0-0.4-0.1-0.8-0.4-1.1c-0.3-0.3-0.7-0.6-1.1-0.9
				c-0.5-0.3-1-0.5-1.7-0.8c-0.7-0.3-1.4-0.5-2.1-0.8c-1.9-0.7-3.4-1.5-4.3-2.5c-0.9-1-1.4-2.2-1.4-3.5c0-1.1,0.3-2,0.8-2.8
				c0.5-0.8,1.2-1.4,2.1-1.9c0.9-0.5,1.9-0.9,3.1-1.1c1.2-0.2,2.4-0.4,3.7-0.4c1.3,0,2.4,0.1,3.4,0.2c1,0.1,1.9,0.3,2.7,0.6v4.3
				c-0.4-0.2-0.9-0.5-1.4-0.6c-0.5-0.2-1-0.3-1.5-0.5c-0.5-0.1-1-0.2-1.5-0.3c-0.5-0.1-1-0.1-1.5-0.1c-0.6,0-1.2,0.1-1.7,0.2
				c-0.5,0.1-1,0.2-1.3,0.4c-0.4,0.2-0.6,0.4-0.8,0.7c-0.2,0.3-0.3,0.5-0.3,0.9c0,0.3,0.1,0.7,0.3,0.9c0.2,0.3,0.5,0.5,0.9,0.8
				s0.9,0.5,1.5,0.7c0.6,0.2,1.2,0.5,1.9,0.7c1,0.3,1.9,0.7,2.7,1.1c0.8,0.4,1.5,0.8,2,1.3c0.6,0.5,1,1.1,1.3,1.7
				c0.3,0.6,0.4,1.4,0.4,2.2c0,1.2-0.3,2.1-0.8,2.9c-0.5,0.8-1.2,1.4-2.1,1.9c-0.9,0.5-1.9,0.8-3.1,1c-1.2,0.2-2.4,0.3-3.8,0.3
				c-1.4,0-2.6-0.1-3.9-0.3C531.6,65.4,530.6,65.1,529.7,64.7"/>
			<path class="st1" d="M666.1,70.6h-73.2c-2.9,0-12.6-0.1-16,16l-5.3,36c-2.7,16,11.7,16,16,16h73.2c2.9,0,13.8,0.7,17.1-16l4.3-36
				C685.1,71.4,669,70.6,666.1,70.6 M651.6,94.9l-3.4,21.5c-2.7,14-11.8,13.4-14.2,13.4h-24.9c-3.6,0-15.6,0-13.4-13.4l4.3-21.5
				c2.8-13.4,10.9-13.4,13.4-13.4h24.9C640.7,81.5,654.1,82.2,651.6,94.9"/>
			<path class="st1" d="M454.2,148.8c0.2,0,0.4,0.1,0.6,0.1c0.8,0,1.4-0.3,1.4-1.1c0-0.8-0.5-0.9-1.1-0.9c-0.4,0-0.7,0-1.1,0.1
				c-0.1,2.1-0.2,3.8-0.2,7.3H451c0.2-1.4,0.4-6.7,0.4-9.3h5c2.3,0,2.7,1.8,2.7,2.7c0,2-1.5,3.2-3.4,3.2c-0.3,0-0.6,0-0.9-0.1
				L454.2,148.8"/>
			<path class="st1" d="M477.5,144.8l-0.1,2.1c-0.9,0-1.7-0.1-2.5-0.1h-2.1l-0.1,1.6h1.6c0.8,0,1.6,0,2.3,0l-0.1,2h-3.9l-0.1,1.7
				h0.9c1.3,0,2.5,0,3.8-0.1l-0.1,2.1h-7.6c0.2-1.5,0.5-4.8,0.5-9.3H477.5"/>
			<path class="st1" d="M491.5,146.8c-0.2,2.5-0.2,4.9-0.3,7.4h-2.9c0.3-2.9,0.4-5.6,0.4-9.3h4.9c0.7,0,3.4,0.1,3.4,2.5
				c0,1.5-0.9,2.3-2.2,2.7c0.5,1.4,1.2,2.7,1.8,4.1h-3.1c-0.5-1.8-1.2-3.5-1.8-5.2c0.2,0,0.5,0.1,0.7,0.1c0.8,0,1.8-0.3,1.8-1.3
				c0-0.9-0.9-0.9-1.6-0.9H491.5"/>
			<path class="st1" d="M511,148.5h3.6l-0.1,2c-0.6,0-1.2,0-1.8,0h-1.8l-0.1,3.7h-3.1c0.2-1.5,0.4-5.9,0.4-9.3h7.2l-0.1,2
				c-0.8,0-1.6,0-2.4,0H511L511,148.5"/>
			<path class="st1" d="M536.9,149.3c0,3.4-2.5,5.1-5.7,5.1c-2.9,0-5.5-1.4-5.5-4.6c0-3.9,3.1-5.1,5.8-5.1
				C534.4,144.6,536.9,146.1,536.9,149.3 M528.7,149.7c0,1.5,1.1,2.6,2.6,2.6c1.7,0,2.7-1.3,2.7-2.9c0-1.5-1-2.6-2.5-2.6
				C529.7,146.7,528.7,148,528.7,149.7"/>
			<path class="st1" d="M550.7,146.8c-0.2,2.5-0.2,4.9-0.3,7.4h-2.9c0.3-2.9,0.4-5.6,0.4-9.3h4.9c0.7,0,3.4,0.1,3.4,2.5
				c0,1.5-0.9,2.3-2.2,2.7c0.5,1.4,1.2,2.7,1.8,4.1h-3.1c-0.5-1.8-1.2-3.5-1.8-5.2c0.2,0,0.5,0.1,0.7,0.1c0.8,0,1.8-0.3,1.8-1.3
				c0-0.9-0.9-0.9-1.6-0.9H550.7"/>
			<path class="st1" d="M566.8,154.2c0.3-2.5,0.7-7,0.8-9.3h3.8c0.1,0.8,1,3.9,1.3,5.8h0c1-3.8,1.7-4.7,1.9-5.8h3.9
				c-0.1,1.4-0.3,5.5-0.3,9.3h-2.5c0.1-0.8,0.2-3.2,0.2-6.6h0c-0.7,2.2-1.4,4.4-2.2,6.6h-2.5c-0.7-3.4-1.2-5.1-1.5-6.6h0
				c-0.2,1.9-0.4,5.4-0.4,6.6H566.8"/>
			<path class="st1" d="M592.3,151.5l-1.2,2.7h-3.2c1-1.6,4.2-7.7,4.9-9.3h3.5c1.1,3.1,2.2,6.2,3.4,9.3h-3.1
				c-0.2-0.9-0.6-1.8-0.9-2.7H592.3 M595.3,149.5l-0.9-2.7l-1.3,2.7H595.3z"/>
			<path class="st1" d="M617,150.9L617,150.9c0.1-0.9,0.3-4.4,0.3-6.1h2.7c-0.1,1-0.5,6.9-0.5,9.3H616c-1.1-2-2.4-4-3.4-5.9h0
				c0,0.8-0.2,4.5-0.2,5.9h-2.7c0.2-1.5,0.5-6.7,0.5-9.3h3.5L617,150.9"/>
			<path class="st1" d="M638.6,154.1c-0.9,0.1-1.7,0.2-2.6,0.2c-2.2,0-5.3-0.9-5.3-4.6c0-3.4,2.7-5.1,5.8-5.1c0.8,0,1.7,0.1,2.5,0.3
				l0.1,2.1c-0.7-0.2-1.4-0.3-2.2-0.3c-2.4,0-3.3,1.6-3.3,3c0,1.7,1.2,2.6,2.8,2.6c0.9,0,1.7-0.2,2.5-0.4L638.6,154.1"/>
			<path class="st1" d="M657.9,144.8l-0.1,2.1c-0.9,0-1.7-0.1-2.5-0.1h-2.1l-0.1,1.6h1.6c0.8,0,1.6,0,2.3,0l-0.1,2H653l-0.1,1.7h0.9
				c1.3,0,2.5,0,3.8-0.1l-0.1,2.1h-7.6c0.2-1.5,0.5-4.8,0.5-9.3H657.9"/>
			<path class="st3" d="M75.2,124.1c0.2-1.4-1.4-2.7-3.5-2.9c-2.1-0.1-4,0.9-4.2,2.4c-0.2,1.4,1.4,2.7,3.5,2.9
				C73.1,126.6,75,125.6,75.2,124.1"/>
			<path class="st3" d="M100.6,142c0,0-5.6-5.3-8.2-6.3c-4.2-1.6-19.9-8.2-36.8,1.1c-3.5,2.1-5.9,4.3-7.6,6.5l53.5-0.3
				C101,142.4,100.6,142,100.6,142"/>
			<path class="st3" d="M34,98.7c0,1.5,1.7,2.6,3.8,2.6c2.1,0,3.8-1.2,3.8-2.6c0-1.5-1.7-2.6-3.8-2.6C35.8,96.1,34,97.3,34,98.7"/>
			<path class="st3" d="M43.7,84c0-2.2-2.6-4-5.9-4c-3.2,0-5.9,1.8-5.9,4c0,2.2,2.6,4,5.8,4C41.1,88,43.7,86.2,43.7,84"/>
			<path class="st3" d="M98.6,125.5c0.3-2.2-2.1-4.2-5.3-4.4c-3.2-0.2-6.1,1.4-6.3,3.6c-0.3,2.2,2.1,4.2,5.3,4.4
				C95.5,129.4,98.3,127.8,98.6,125.5"/>
			<path class="st3" d="M20.7,122.1c0,6.4,7.5,11.6,16.8,11.6c9.3,0,16.8-5.2,16.8-11.5c0-6.4-7.5-11.5-16.8-11.6
				C28.3,110.6,20.7,115.7,20.7,122.1"/>
			<path class="st3" d="M0,38.3v29c0.7-0.2,1.4-0.5,2.2-0.7c0.8-0.6,1.6-1.4,1.6-2c0-1.2-1.1-1.9-0.9-2.9C3.1,60.8,4,60.2,4,60.2
				l2.4-0.6c0,0,1.4,0.1,2.3,0.7c0.9,0.7,0.4,1.8,1.7,2.7c0.6,0.5,2,0.7,3.2,0.8c1-0.2,2-0.4,3.1-0.6c1-0.5,2-1.2,2.2-1.8
				c0.3-1.1-0.6-2-0.2-2.9c0.4-0.9,1.5-1.4,1.5-1.4l2.5-0.3c0,0,1.4,0.2,2.1,1c0.7,0.8,0,1.8,1,2.9c0.5,0.5,1.8,1,3,1.2
				c1-0.1,2-0.1,3-0.2c1.1-0.4,2.4-1,2.7-1.6c0.5-1.1-0.1-2.1,0.6-2.9c0.7-0.8,1.8-1.2,1.8-1.2l2.6,0c0,0,1.3,0.4,1.8,1.2
				c0.5,0.8-0.4,1.8,0.3,2.9c0.4,0.6,1.6,1.2,2.7,1.6c1,0.1,2,0.1,3,0.2c1.1-0.3,2.4-0.7,2.8-1.2c0.8-1,0.4-2.1,1.3-2.8
				c0.9-0.7,2.1-0.9,2.1-0.9l2.6,0.3c0,0,1.2,0.5,1.5,1.4c0.3,0.9-0.9,1.7-0.5,2.9c0.2,0.6,1.1,1.3,2,1.8c1.1,0.2,2.2,0.4,3.3,0.6
				c1.2-0.1,2.5-0.4,3.1-0.8c1.1-0.9,1-2,2-2.6c1-0.6,2.3-0.7,2.3-0.7l2.4,0.6c0,0,1,0.7,1.1,1.6c0.1,0.9-1.3,1.5-1.2,2.8
				c0,0.6,0.8,1.4,1.6,2c1,0.3,2,0.6,3,1c1.2,0,2.6-0.1,3.3-0.5c1.3-0.7,1.4-1.8,2.6-2.3c1.2-0.5,2.4-0.4,2.4-0.4l2.3,0.9
				c0,0,0.9,0.8,0.7,1.7c-0.2,0.9-1.7,1.4-1.9,2.6c-0.1,0.6,0.5,1.5,1.1,2.2c0.9,0.4,1.7,0.8,2.6,1.2c1.2,0.2,2.7,0.3,3.5,0
				c1.4-0.6,1.9-1.6,3.2-2c1.3-0.3,2.5-0.1,2.5-0.1l2,1.1c0,0,0.6,0.9,0.3,1.7c-0.4,0.9-2,1.1-2.5,2.4c-0.3,0.6,0.1,1.6,0.6,2.4
				c0.7,0.5,1.4,0.9,2,1.4c1.2,0.3,2.8,0.7,3.7,0.4c1.6-0.4,2.3-1.4,3.6-1.6c1.4-0.2,2.5,0.2,2.5,0.2l1.7,1.3c0,0,0.4,0.9-0.2,1.7
				c-0.6,0.8-2.2,0.9-3.1,2c-0.5,0.6-0.3,1.7,0,2.6c0.5,0.5,0.9,0.9,1.4,1.4c1.1,0.5,2.6,1,3.6,0.9c1.6-0.2,2.6-1.1,4-1.1
				c1.4,0,2.4,0.5,2.4,0.5l1.3,1.5c0,0,0.2,1-0.6,1.7c-0.8,0.7-2.4,0.6-3.6,1.6c-0.6,0.6-0.7,1.7-0.6,2.6c0.3,0.5,0.7,1,1,1.5
				c0.9,0.6,2.3,1.4,3.4,1.3c1.7,0,2.8-0.8,4.2-0.6c1.4,0.1,2.2,0.8,2.2,0.8l0.9,1.7c0,0-0.1,1-1,1.6c-1,0.6-2.5,0.3-3.9,1.2
				c-0.8,0.5-1.1,1.6-1.3,2.5c0.2,0.5,0.4,1,0.6,1.5c0.8,0.7,2,1.7,3,1.8c1.6,0.2,3-0.4,4.3-0.1c1.3,0.3,2,1,2,1l0.5,1.7
				c0,0-0.3,0.9-1.4,1.4c-1.1,0.5-2.6,0-4.2,0.7c-0.9,0.4-1.6,1.5-1.9,2.4c0.1,0.5,0.1,1,0.2,1.6c0.6,0.8,1.5,1.7,2.4,2
				c1.4,0.3,2.7,0,3.8,0.3c0.2,0,0.3,0.1,0.5,0.1c1.2,0.5,1.7,1.2,1.7,1.2l0,1.8c0,0-0.5,0.9-1.8,1.2c-1.2,0.3-2.5-0.3-4.3,0.2
				c-1,0.3-1.8,1.2-2.4,2c-0.1,0.6-0.1,1.1-0.2,1.7c0.4,0.8,1,1.9,1.9,2.3c1.5,0.6,3,0.3,4.1,0.9c1.1,0.6,1.4,1.4,1.4,1.4l-0.4,1.8
				c0,0-0.8,0.8-2,1c-1.3,0.2-2.4-0.6-4.2-0.3c-1,0.2-2.1,1-2.9,1.7c-0.2,0.5-0.4,1.1-0.6,1.6c0.2,0.9,0.5,2,1.3,2.5
				c1.3,0.7,2.9,0.7,3.8,1.4c0.2,0.2,0.4,0.3,0.5,0.5l6.5,0L158.7,0L0,38.3"/>
			<path class="st3" d="M0,76.1v38.2c5.9-0.3,12.5-1.8,19-6c15.2-10.7,7-22,5-25c-1.3-1.9-8.6-6.2-8.6-6.2S10.2,73.3,0,76.1"/>
			<path class="st3" d="M108.5,112.7c-2.3,1-7.3,4.9-7.3,4.9c1.1,2.3,0.9,8.2,0.9,8.8c-0.1,0.6-1.4,6.5-3.1,8.7c0,0,4,4.5,6,5.8
				c2,1.3,8,2.8,10.7-1.3c3.7-5.7,4.1-11.8,4.2-12c0-0.2,1.1-6.2-1.1-12.2C117.1,110.9,110.8,111.6,108.5,112.7"/>
			<path class="st3" d="M56.6,67.2c-8.6-2-17.5-1.8-17.8-1.8c-0.3,0-9.1-0.2-17.6,1.8c-6.1,1.4-4.6,5.7-2.9,7.2
				c1.7,1.5,7.7,4.6,7.7,4.6c3.2-1,11.9-1.3,12.7-1.4c0.8,0,9.6,0.4,12.9,1.4c0,0,6.1-3.1,7.8-4.6C61.2,72.9,62.8,68.6,56.6,67.2"/>
			<path class="st3" d="M92.8,84.6c-5.5-3.7-3.9-3-9.7-5.9c-14.2-7-21.5-1.5-21.5-1.5s-7.2,4.3-8.4,6.1c-2,3-10.1,14.3,4.8,25.1
				c15.5,10.3,32.1,4.7,36.4,3.4c2.7-0.8,9-5.8,9-5.8s8.1-5-2.1-14.7C98.5,88.6,92.8,84.6,92.8,84.6"/>
		</g>
	</g>
</g>
</svg>
