<?xml version="1.0" encoding="utf-8"?>
<!-- Generator: Adobe Illustrator 16.0.0, SVG Export Plug-In . SVG Version: 6.00 Build 0)  -->
<!DOCTYPE svg PUBLIC "-//W3C//DTD SVG 1.1//EN" "http://www.w3.org/Graphics/SVG/1.1/DTD/svg11.dtd">
<svg version="1.1" id="Layer_1" xmlns="http://www.w3.org/2000/svg" xmlns:xlink="http://www.w3.org/1999/xlink" x="0px" y="0px"
	 width="157px" height="57px" viewBox="0 0 313 114" enable-background="new 0 0 313 114" xml:space="preserve">
<g>
	<path fill="#863E92" d="M129.871,94.779c2.083,0.664,0.279,3.061-1.036,4.021c-39.542,28.783-74.616-11.207-74.616-11.207
		c-0.313,1.283-9.385,25.616-13.157,22.342c-0.242-0.207-0.554-0.781-0.242-1.427c8.393-17.632,8.938-26.434,8.938-26.434
		s-3.083-4.71-4.924-8.21c-1.841-3.488-3.609-7.267-5.299-11.323c-1.709-4.055-3.264-8.272-4.694-12.651
		c-1.429-4.386-2.591-8.703-3.466-12.947c-0.886-4.245-1.44-8.326-1.664-12.247c-0.223-3.922,0.01-7.438,0.697-10.579
		c0.689-3.123,1.887-5.743,3.603-7.86s4.094-3.49,7.125-4.136c2.396-0.502,4.495-0.116,6.318,1.149
		c1.824,1.283,3.398,3.221,4.729,5.823c1.332,2.611,2.413,5.751,3.253,9.42c0.85,3.67,1.511,7.636,2.002,11.898
		c0.483,4.245,0.786,8.694,0.893,13.333c0.127,4.63,0.107,9.206-0.018,13.701c-0.125,4.514-0.375,8.82-0.75,12.931
		c-0.78,8.486-0.545,8.012-0.295,8.29C92.67,116.547,126.904,93.881,129.871,94.779z M42.939,15.05
		c-3.566-0.44-4.378,6.2-4.426,8.785C38.157,46.696,49.054,68.4,51.287,72.231c0.527-4.468,1.135-28.316-1.001-41.524
		c-0.528-3.284-1.18-6.101-1.905-8.453c-0.724-2.35-1.563-4.163-2.52-5.445C44.914,15.526,43.939,15.176,42.939,15.05z"/>
	<g>
		<path fill="#E80E8A" d="M23.257,65.602c-0.778,1.982-1.86,3.85-3.263,5.607c-1.394,1.776-2.959,3.221-4.691,4.352
			c-1.728,1.14-3.513,1.875-5.355,2.198c-1.859,0.323-3.611,0.045-5.283-0.853c-1.725-0.96-2.976-2.404-3.753-4.343
			c-0.77-1.946-1.063-4.163-0.839-6.647c0.195-2.478,0.927-5.114,2.18-7.897c1.26-2.781,3.073-5.481,5.46-8.119
			c1.727-1.911,3.916-3.553,6.562-4.926c2.653-1.381,5.406-2.217,8.267-2.521c1.903,0,3.396,0.395,4.471,1.176
			c1.08,0.771,1.608,2.207,1.608,4.297c0,2.333,0,4.836,0,7.492c0,2.665-0.027,5.374-0.089,8.121
			c-0.063,2.745-0.116,5.472-0.179,8.164c-0.053,2.691-0.153,5.241-0.259,7.626c-0.545-0.053-1.172-0.187-1.885-0.402
			c-0.716-0.207-1.359-0.754-1.921-1.66c-0.563-0.889-0.967-2.252-1.199-4.082C22.837,71.36,22.899,68.832,23.257,65.602z
			 M22.632,47.486c-2.504,0.296-4.72,0.978-6.66,2.054c-1.938,1.078-3.619,2.396-5.05,3.948c-1.545,1.741-2.798,3.669-3.753,5.787
			c-0.957,2.127-1.557,4.128-1.824,6.012c-0.277,1.884-0.214,3.517,0.179,4.89C5.9,71.559,6.696,72.357,7.894,72.6
			c1.84,0.423,3.691-0.189,5.531-1.84c1.851-1.641,3.504-3.785,4.961-6.45c1.458-2.665,2.602-5.536,3.406-8.623
			C22.586,52.609,22.874,49.872,22.632,47.486z"/>
		<path fill="#E80E8A" d="M69.369,41.474c1.851-0.305,3.253,0.477,4.201,2.325c0.304,0.484,0.518,1.158,0.671,2.028
			c0.152,0.861,0.223,2.315,0.223,4.342l0.268,27.735c-0.474,0.295-0.993,0.394-1.565,0.304c-0.562-0.089-1.117-0.304-1.653-0.673
			c-0.527-0.359-0.982-0.853-1.34-1.479c-0.358-0.629-0.564-1.328-0.626-2.108L69.369,41.474z"/>
		<path fill="#E80E8A" d="M79.639,64.255c-0.117-2.987,0.276-5.732,1.17-8.254c0.895-2.512,2.163-4.71,3.799-6.585
			c1.636-1.893,3.63-3.437,5.988-4.674c2.351-1.222,4.961-2.01,7.821-2.369c1.008-0.117,1.948-0.082,2.816,0.125
			c0.866,0.215,1.599,0.547,2.189,0.987c0.599,0.448,1.011,0.986,1.251,1.615c0.233,0.627,0.233,1.336,0,2.118
			c-2.683-0.18-5.229,0.053-7.643,0.708c-2.413,0.665-4.53,1.722-6.354,3.194c-1.814,1.463-3.209,3.312-4.193,5.554
			c-0.983,2.252-1.331,4.891-1.037,7.941c0.188,2.279,0.86,4.073,2.02,5.384c1.162,1.318,2.628,2.233,4.38,2.736
			c1.759,0.511,3.689,0.673,5.809,0.493c2.109-0.179,4.246-0.654,6.391-1.436c0.357,0.834,0.375,1.651,0.034,2.432
			c-0.32,0.771-0.83,1.463-1.51,2.062c-0.678,0.593-1.509,1.068-2.456,1.428c-0.957,0.359-1.878,0.538-2.772,0.538
			c-1.788,0-3.7-0.17-5.721-0.493c-2.019-0.323-3.915-1.005-5.675-2.02c-1.761-1.013-3.217-2.439-4.38-4.261
			C80.409,69.656,79.773,67.244,79.639,64.255z"/>
		<path fill="#E80E8A" d="M109.858,41.474c1.852-0.305,3.245,0.477,4.202,2.325c0.294,0.484,0.518,1.158,0.669,2.028
			c0.144,0.861,0.224,2.314,0.224,4.342l0.27,27.734c-0.484,0.296-1.001,0.395-1.566,0.305c-0.562-0.089-1.117-0.305-1.652-0.673
			c-0.538-0.359-0.984-0.853-1.342-1.479c-0.356-0.629-0.563-1.328-0.624-2.108L109.858,41.474z"/>
		<path fill="#E80E8A" d="M143.735,65.602c-0.778,1.982-1.869,3.85-3.271,5.607c-1.395,1.776-2.958,3.221-4.684,4.352
			c-1.733,1.14-3.523,1.875-5.363,2.198c-1.85,0.323-3.61,0.045-5.283-0.853c-1.715-0.96-2.977-2.404-3.754-4.343
			c-0.768-1.947-1.054-4.163-0.84-6.647c0.205-2.478,0.938-5.114,2.189-7.897c1.253-2.781,3.067-5.481,5.453-8.119
			c1.725-1.911,3.915-3.553,6.569-4.935c2.646-1.373,5.408-2.208,8.259-2.513c1.912,0,3.405,0.395,4.478,1.176
			c1.074,0.771,1.61,2.207,1.61,4.297c0,2.333,0,4.836,0,7.492c0,2.665-0.037,5.374-0.099,8.121
			c-0.054,2.745-0.114,5.472-0.179,8.164c-0.053,2.691-0.142,5.24-0.258,7.627c-0.537-0.054-1.162-0.188-1.886-0.403
			c-0.706-0.207-1.351-0.754-1.923-1.66c-0.554-0.889-0.966-2.252-1.197-4.082C143.313,71.36,143.377,68.832,143.735,65.602z
			 M143.099,47.486c-2.493,0.296-4.719,0.978-6.649,2.054c-1.939,1.078-3.62,2.396-5.051,3.948c-1.546,1.741-2.807,3.67-3.754,5.787
			c-0.955,2.127-1.564,4.128-1.831,6.012c-0.268,1.884-0.216,3.517,0.169,4.89c0.395,1.382,1.188,2.181,2.379,2.423
			c1.84,0.423,3.69-0.189,5.532-1.839c1.849-1.642,3.503-3.786,4.961-6.451c1.465-2.665,2.6-5.536,3.406-8.623
			C143.054,52.609,143.34,49.872,143.099,47.486z"/>
	</g>
	<g>
		<path fill="#863E92" d="M116.669,24.347v0.215h-0.052l-0.098-0.064v0.108c0.205,0,0.312,0.225,0.312,0.673v0.161
			c0,0.063-0.034,0.108-0.106,0.108l0.044,0.099v1.05c0,0.089,0.037,0.188,0.106,0.305c-0.026,0.189-0.044,0.341-0.044,0.475v0.152
			h-0.106v0.09c0.106,0,0.15,0.037,0.15,0.109c0,0.08-0.034,0.107-0.106,0.107c0,0.439,0.367,0.771,1.09,0.987l0.894,0.476
			c0.598,0.188,0.921,0.332,0.974,0.421c0.304,0,0.636,0.189,0.992,0.566v0.053c-0.036,0.189-0.25,0.368-0.624,0.521
			c-0.831,0.18-1.414,0.332-1.762,0.467l-0.106-0.054c-0.224,0.143-0.501,0.216-0.832,0.216h-0.205
			c-0.358,0.134-0.563,0.295-0.625,0.466h0.106v0.521c0.136,0.925,0.205,1.661,0.205,2.189c-0.078,0.907-0.257,1.354-0.518,1.354
			h-0.053c-0.856-0.834-1.287-1.301-1.287-1.408c-0.553-0.494-0.956-1.023-1.207-1.561c0.045-0.063,0.055-0.125,0.055-0.207
			l-0.26,0.045c0-0.054-0.071-0.18-0.214-0.36c-0.25-0.044-0.412-0.108-0.51-0.206c0,0.152-0.071,0.241-0.206,0.251
			c-1.027,0.215-1.581,0.35-1.663,0.412h-0.356v-0.143h-0.161c0,0.036,0.01,0.089,0.054,0.143c0,0.1-0.276,0.17-0.831,0.215
			c-0.323,0.145-0.492,0.216-0.52,0.216l-0.107-0.062c-0.77,0.108-1.234,0.162-1.402,0.162c-0.243,0-0.52-0.099-0.822-0.315v-0.215
			c0.411-0.466,0.616-0.744,0.616-0.826h0.108v0.054l-0.054,0.108l0.098,0.044h0.107v-0.305c0.394-0.457,0.636-0.682,0.725-0.682
			c0.554-0.385,0.84-0.637,0.84-0.736c0.482-0.405,0.724-0.62,0.724-0.673c0.358-0.17,0.572-0.35,0.626-0.521
			c0-0.305-0.089-0.475-0.268-0.52c-0.153-0.243-0.278-0.369-0.358-0.369l0.044-0.251v-0.062h-0.098v0.107
			c-0.063,0-0.356-0.332-0.885-0.979c0.036,0,0.088-0.026,0.161-0.062c0-0.053-0.037-0.089-0.099-0.108v0.108h-0.107v-0.358
			c-0.081,0-0.107,0.062-0.107,0.206c-0.143-0.089-0.287-0.26-0.421-0.52c-0.375-0.26-0.57-0.467-0.57-0.628L108,26.005
			c-0.152-0.036-0.367-0.251-0.626-0.628c-0.115-0.305-0.26-0.466-0.41-0.466v-0.153l0.106-0.152
			c0.688,0.098,1.038,0.215,1.038,0.358c0.662,0.144,0.982,0.251,0.982,0.315v0.098c0,0.107-0.071,0.17-0.205,0.17v0.305
			c0.034,0,0.053-0.018,0.053-0.054c0.276,0,0.411,0.071,0.411,0.206h0.056l0.15-0.107c-0.125-0.207-0.214-0.305-0.25-0.305v-0.216
			h0.044c0.163,0,0.314,0.072,0.464,0.216c0.234,0,0.51,0.117,0.841,0.368c0.464,0.134,0.839,0.295,1.126,0.458
			c0.706,0.215,1.109,0.367,1.206,0.475h0.206c0.332,0,0.672-0.242,1.036-0.727c0.207-0.135,0.314-0.224,0.314-0.269
			c0.17-0.134,0.26-0.26,0.26-0.35c0.08,0,0.151,0.009,0.214,0.045c0.126-0.108,0.225-0.153,0.305-0.153v-0.107h-0.162l0.108-0.207
			c0.16-0.035,0.331-0.224,0.519-0.564c0.275-0.189,0.421-0.325,0.421-0.431h0.249C116.607,24.22,116.669,24.283,116.669,24.347z
			 M108.938,31.533c0,0.152-0.053,0.286-0.152,0.421v0.206h0.152v-0.314l0.152-0.206v-0.107H108.938z M108.938,32.941v0.098
			c0.026,0,0.089,0.018,0.152,0.045c0.107-0.071,0.161-0.125,0.161-0.143H108.938z M109.813,30.851c-0.07,0-0.097,0.036-0.097,0.107
			v0.261l0.045,0.107c0.071-0.036,0.123-0.054,0.169-0.054v-0.422H109.813z M111.011,30.438l-0.106,0.359v0.054h0.106
			c0.065,0,0.099-0.036,0.108-0.107v-0.206C111.119,30.482,111.083,30.447,111.011,30.438z M111.529,32.466l-0.052,0.314h0.151
			v-0.314H111.529z M111.951,28.41c-0.098-0.385-0.179-0.582-0.269-0.582v0.833l-0.153,0.575c0,0.071,0.037,0.108,0.099,0.108
			c0-0.054,0.036-0.126,0.107-0.215v-0.252c0.08,0,0.188-0.125,0.315-0.358C112.051,28.446,112.013,28.41,111.951,28.41z
			 M111.887,27.414v0.369h0.063c0.062,0,0.088-0.037,0.1-0.108v-0.261l-0.056-0.108C111.924,27.306,111.887,27.343,111.887,27.414z
			 M112.406,31.847c-0.064,0-0.099,0.035-0.099,0.108v0.304h0.206c0-0.035-0.017-0.08-0.045-0.152c0-0.036,0.018-0.089,0.045-0.152
			C112.513,31.882,112.479,31.855,112.406,31.847z M113.657,31.165h-0.098c0,0.037,0.018,0.055,0.045,0.055l-0.045,0.26v0.207h0.045
			c0.072,0,0.106,0.09,0.106,0.269h0.099v-0.735C113.783,31.219,113.729,31.201,113.657,31.165z M114.802,30.178v0.099
			c0.097,0.126,0.161,0.224,0.161,0.313h0.143v-0.098c-0.134-0.125-0.196-0.215-0.196-0.314H114.802z M114.802,31.587v0.054
			c0.035,0,0.09,0.018,0.161,0.045c0-0.072,0.046-0.099,0.143-0.099v-0.162C114.98,31.533,114.881,31.587,114.802,31.587z
			 M114.962,26.948v0.313c0.135,0,0.196,0.044,0.196,0.152h0.108c0.062,0,0.098-0.035,0.105-0.108v-0.044
			c-0.105-0.116-0.149-0.215-0.149-0.313H114.962z M115.267,33.192l-0.304,0.107v0.108l0.099-0.053h0.044v0.098h0.053
			c0.082-0.054,0.19-0.098,0.312-0.098C115.471,33.31,115.409,33.255,115.267,33.192z M115.785,25.898
			c-0.044,0.017-0.117,0.107-0.206,0.269v0.045h0.153c0.106-0.045,0.16-0.099,0.16-0.152v-0.055
			C115.892,25.952,115.855,25.915,115.785,25.898z M115.829,28.303h-0.044c0,0.045-0.019,0.09-0.053,0.152
			c0,0.072,0.035,0.108,0.097,0.108c-0.027,0.241-0.044,0.376-0.044,0.422v0.045h0.161c0-0.081,0.008-0.144,0.053-0.215
			C115.955,28.473,115.91,28.303,115.829,28.303z M116,26.419c-0.117,0.062-0.17,0.116-0.17,0.17h0.062l0.258-0.062v-0.045
			C116.106,26.481,116.061,26.463,116,26.419z M116.15,26.275v0.144h0.099l0.054-0.306C116.196,26.167,116.15,26.221,116.15,26.275z
			 M116.519,33.561h-0.063c-0.206,0-0.305,0.108-0.305,0.322l0.305,0.144c0.054,0,0.125-0.081,0.214-0.251v-0.055
			C116.617,33.614,116.563,33.561,116.519,33.561z M116.874,28.922c-0.196,0.242-0.365,0.368-0.518,0.368
			c0.037,0.054,0.055,0.162,0.055,0.314h0.107l0.098-0.26h0.257l0.153-0.108c-0.027-0.045-0.053-0.152-0.053-0.314H116.874z
			 M116.411,26.481v0.467c0,0.071,0.035,0.107,0.107,0.107l0.098-0.054l-0.054-0.368l0.054-0.107c-0.063,0-0.098-0.045-0.098-0.153
			C116.446,26.374,116.411,26.41,116.411,26.481z"/>
	</g>
	<g>
		<path fill="#863E92" d="M81.767,16.71v0.296h-0.063l-0.142-0.081v0.143c0.276,0,0.429,0.324,0.429,0.96v0.215
			c0,0.099-0.046,0.144-0.153,0.144l0.081,0.152v1.471c0,0.127,0.044,0.278,0.152,0.431c-0.055,0.26-0.08,0.494-0.08,0.663v0.216
			h-0.153v0.143c0.153,0,0.233,0.055,0.233,0.153c0,0.1-0.055,0.144-0.152,0.144c0,0.628,0.501,1.086,1.52,1.391l1.251,0.665
			c0.85,0.278,1.315,0.466,1.385,0.583c0.428,0,0.886,0.277,1.386,0.808v0.08c-0.053,0.27-0.35,0.512-0.868,0.727
			c-1.171,0.251-2.002,0.467-2.485,0.664l-0.143-0.081c-0.322,0.207-0.705,0.297-1.17,0.297H82.5
			c-0.509,0.197-0.796,0.412-0.876,0.664h0.144v0.727c0.196,1.309,0.304,2.342,0.304,3.077c-0.135,1.275-0.376,1.911-0.744,1.911
			h-0.07c-1.216-1.166-1.824-1.83-1.824-1.983c-0.768-0.7-1.331-1.427-1.68-2.198c0.053-0.081,0.071-0.179,0.071-0.288l-0.366,0.063
			c0-0.081-0.098-0.251-0.295-0.502c-0.349-0.062-0.591-0.162-0.716-0.295c0,0.215-0.107,0.332-0.304,0.367
			c-1.447,0.288-2.224,0.485-2.332,0.583h-0.508v-0.216h-0.226c0,0.045,0.028,0.126,0.08,0.216c0,0.126-0.392,0.225-1.171,0.287
			c-0.455,0.198-0.695,0.296-0.74,0.296l-0.144-0.062c-1.072,0.135-1.734,0.215-1.967,0.215c-0.348,0-0.732-0.153-1.17-0.449V29.02
			c0.582-0.672,0.874-1.058,0.874-1.166h0.145v0.071l-0.062,0.145l0.133,0.071h0.153v-0.439c0.554-0.638,0.885-0.96,1.02-0.96
			c0.786-0.539,1.17-0.889,1.17-1.014c0.687-0.583,1.027-0.896,1.027-0.96c0.501-0.251,0.796-0.484,0.878-0.735
			c0-0.421-0.126-0.664-0.377-0.727c-0.224-0.341-0.386-0.512-0.501-0.512l0.064-0.368v-0.071h-0.144v0.143
			c-0.081,0-0.492-0.466-1.243-1.391c0.052,0,0.125-0.026,0.224-0.071c0-0.08-0.045-0.134-0.143-0.152v0.152h-0.151v-0.521
			c-0.09,0-0.144,0.107-0.144,0.296c-0.197-0.117-0.394-0.359-0.581-0.727c-0.537-0.367-0.812-0.664-0.812-0.879l0.08-0.153
			c-0.225-0.062-0.52-0.35-0.877-0.879c-0.177-0.439-0.376-0.664-0.589-0.664v-0.216l0.152-0.215
			c0.965,0.134,1.457,0.304,1.457,0.511c0.93,0.198,1.385,0.35,1.385,0.44v0.143c0,0.144-0.089,0.216-0.286,0.216v0.449
			c0.045,0,0.071-0.036,0.071-0.081c0.393,0,0.581,0.099,0.581,0.296h0.081l0.215-0.144c-0.181-0.296-0.304-0.439-0.367-0.439
			v-0.296h0.071c0.231,0,0.438,0.089,0.66,0.296c0.324,0,0.708,0.17,1.174,0.512c0.668,0.197,1.195,0.412,1.598,0.664
			c0.983,0.288,1.546,0.512,1.681,0.646h0.294c0.465,0,0.948-0.34,1.458-1.014c0.294-0.188,0.437-0.313,0.437-0.367
			c0.25-0.207,0.368-0.377,0.368-0.52c0.108,0,0.206,0.027,0.294,0.081c0.17-0.153,0.323-0.225,0.438-0.225v-0.144h-0.215
			l0.143-0.295c0.224-0.045,0.464-0.314,0.725-0.798c0.393-0.251,0.588-0.449,0.588-0.593h0.359
			C81.667,16.531,81.767,16.629,81.767,16.71z M70.889,26.822c0,0.215-0.071,0.412-0.222,0.591v0.288h0.222v-0.44l0.214-0.295
			v-0.144H70.889z M70.889,28.804v0.145c0.054,0,0.125,0.026,0.214,0.071c0.151-0.107,0.224-0.188,0.224-0.216H70.889z
			 M72.129,25.862c-0.096,0-0.143,0.053-0.143,0.152v0.368l0.063,0.152c0.099-0.054,0.169-0.081,0.225-0.081v-0.592H72.129z
			 M73.812,25.288l-0.151,0.512v0.063h0.151c0.07,0,0.124-0.045,0.143-0.135v-0.305C73.955,25.341,73.909,25.297,73.812,25.288z
			 M74.536,28.141l-0.072,0.439h0.223v-0.439H74.536z M75.125,22.425c-0.125-0.538-0.251-0.808-0.375-0.808v1.175l-0.214,0.808
			c0,0.089,0.053,0.144,0.151,0.144c0-0.081,0.045-0.18,0.143-0.296V23.09c0.108,0,0.26-0.17,0.439-0.512
			C75.269,22.489,75.224,22.443,75.125,22.425z M75.053,21.035v0.512h0.072c0.081,0,0.124-0.045,0.144-0.144v-0.368l-0.072-0.152
			C75.099,20.882,75.053,20.937,75.053,21.035z M75.778,27.261c-0.099,0-0.152,0.063-0.152,0.152v0.44h0.303
			c0-0.054-0.026-0.135-0.08-0.226c0-0.053,0.027-0.115,0.08-0.215C75.929,27.324,75.876,27.279,75.778,27.261z M77.539,26.312
			h-0.152c0,0.053,0.025,0.071,0.071,0.071l-0.071,0.359v0.304h0.071c0.098,0,0.143,0.118,0.143,0.368h0.153v-1.031
			C77.699,26.383,77.629,26.365,77.539,26.312z M79.139,24.911v0.152c0.144,0.162,0.223,0.314,0.223,0.439h0.214V25.36
			c-0.195-0.17-0.285-0.323-0.285-0.449H79.139z M79.139,26.894v0.072c0.053,0,0.133,0.027,0.223,0.08
			c0-0.098,0.071-0.152,0.214-0.152v-0.216C79.397,26.822,79.247,26.894,79.139,26.894z M79.362,20.371v0.439
			c0.197,0,0.295,0.072,0.295,0.224H79.8c0.072,0,0.116-0.054,0.142-0.152v-0.072c-0.15-0.162-0.213-0.305-0.213-0.439H79.362z
			 M79.8,29.164l-0.438,0.144v0.153l0.143-0.063h0.071v0.144h0.081c0.099-0.099,0.25-0.144,0.438-0.144
			C80.094,29.307,79.987,29.245,79.8,29.164z M80.525,18.908c-0.064,0-0.172,0.126-0.287,0.367v0.073h0.213
			c0.153-0.081,0.224-0.144,0.224-0.225v-0.071C80.676,18.971,80.622,18.926,80.525,18.908z M80.595,22.282h-0.07
			c0,0.054-0.018,0.125-0.073,0.215c0,0.099,0.046,0.144,0.143,0.144c-0.044,0.349-0.07,0.539-0.07,0.592v0.071h0.213
			c0-0.107,0.036-0.206,0.08-0.296C80.773,22.523,80.693,22.282,80.595,22.282z M80.818,19.644
			c-0.142,0.072-0.223,0.144-0.223,0.215h0.081l0.358-0.072v-0.071C80.979,19.716,80.918,19.689,80.818,19.644z M81.034,19.42v0.224
			h0.143l0.081-0.439C81.105,19.268,81.034,19.348,81.034,19.42z M81.562,29.684h-0.089c-0.296,0-0.438,0.152-0.438,0.439
			l0.438,0.214c0.071,0,0.179-0.115,0.294-0.357V29.9C81.694,29.756,81.623,29.684,81.562,29.684z M82.07,23.152
			c-0.294,0.341-0.537,0.52-0.744,0.52c0.056,0.072,0.082,0.224,0.082,0.449h0.153l0.142-0.376h0.367l0.204-0.144
			c-0.043-0.071-0.061-0.225-0.061-0.449H82.07z M81.409,19.716v0.655c0,0.098,0.053,0.143,0.153,0.143l0.142-0.071l-0.081-0.511
			l0.081-0.144c-0.098,0-0.142-0.071-0.142-0.215C81.462,19.572,81.409,19.617,81.409,19.716z"/>
	</g>
</g>
<g>
	<g>
		<path fill="#863E92" d="M169.593,67.4h2.081l4.685,12.66h-1.439l-1.49-4.137h-5.623l-1.52,4.137h-1.431L169.593,67.4z
			 M173.114,74.974l-2.467-6.622h-0.035l-2.45,6.622H173.114z"/>
		<path fill="#863E92" d="M178.762,67.4h1.36v11.718h6.623v0.942h-7.983V67.4z"/>
		<path fill="#863E92" d="M188.988,67.4h1.36v12.66h-1.36V67.4z"/>
		<path fill="#863E92" d="M202.54,71.125c-0.646-1.869-1.835-2.953-3.629-2.953c-2.933,0-4.229,2.459-4.229,5.564
			c0,3.103,1.296,5.553,4.38,5.553c2.376,0,3.244-1.427,3.736-3.087l1.278,0.197c-0.556,2.262-1.933,3.84-5.034,3.84
			c-3.601,0-5.718-2.592-5.718-6.503c0-3.913,2.117-6.507,5.718-6.507c2.646,0,4.112,1.597,4.746,3.66L202.54,71.125z"/>
		<path fill="#863E92" d="M206.9,67.4h1.35v12.66h-1.35V67.4z"/>
		<path fill="#863E92" d="M215.508,67.4h2.074l4.691,12.66h-1.447l-1.493-4.137h-5.611l-1.522,4.137h-1.437L215.508,67.4z
			 M219.021,74.974l-2.468-6.622h-0.037l-2.446,6.622H219.021z"/>
		<path fill="#863E92" d="M230.201,80.061V67.4h2.397l4.085,10.73h0.044l4.113-10.73h2.375v12.66h-1.352V68.352h-0.045
			l-4.458,11.709h-1.296l-4.459-11.709h-0.036v11.709H230.201z"/>
		<path fill="#863E92" d="M247.149,80.061V67.4h8.473v0.951h-7.115v4.656h5.122v0.951h-5.122v5.159h7.5v0.942H247.149z"/>
		<path fill="#863E92" d="M268.529,80.061h-1.476l-3.46-5.779h-3.841v5.779h-1.359V67.4h5.015c2.921,0,4.565,1.372,4.565,3.437
			c0,1.669-0.965,2.772-3.081,3.23L268.529,80.061z M259.753,73.332h3.655c1.974,0,3.208-0.935,3.208-2.495
			c0-1.562-1.072-2.485-3.208-2.485h-3.655V73.332z"/>
		<path fill="#863E92" d="M280.069,71.125c-0.646-1.866-1.844-2.953-3.621-2.953c-2.951,0-4.236,2.459-4.236,5.564
			c0,3.103,1.285,5.553,4.378,5.553c2.387,0,3.246-1.427,3.746-3.087l1.271,0.197c-0.556,2.261-1.941,3.84-5.034,3.84
			c-3.601,0-5.712-2.592-5.712-6.503c0-3.913,2.111-6.507,5.712-6.507c2.646,0,4.104,1.588,4.739,3.66L280.069,71.125z"/>
		<path fill="#863E92" d="M284.419,67.4h1.36v12.66h-1.36V67.4z"/>
		<path fill="#863E92" d="M289.829,80.061V67.4h8.464v0.951h-7.105v4.656h5.121v0.951h-5.121v5.159h7.506v0.942H289.829z"/>
		<path fill="#863E92" d="M311.21,80.061h-1.484l-3.44-5.779h-3.855v5.779h-1.356V67.4h5.021c2.915,0,4.56,1.372,4.56,3.437
			c0,1.669-0.965,2.772-3.084,3.23L311.21,80.061z M302.43,73.332h3.665c1.976,0,3.21-0.935,3.21-2.495
			c0-1.562-1.073-2.485-3.21-2.485h-3.665V73.332z"/>
	</g>
	<g>
		<path fill="#863E92" d="M165.061,59.092V41.003h10.566v3.06h-6.517v4.163h5.113v3.042h-5.113v7.824H165.061z"/>
		<path fill="#863E92" d="M179.594,46.817c0-4.46,2.763-6.065,6.693-6.065c3.935,0,6.698,1.605,6.698,6.065v6.468
			c0,4.46-2.764,6.067-6.698,6.067c-3.931,0-6.693-1.606-6.693-6.067V46.817z M183.642,53.735c0,2,1.029,2.557,2.646,2.557
			c1.612,0,2.647-0.556,2.647-2.557v-7.375c0-1.992-1.035-2.548-2.647-2.548c-1.616,0-2.646,0.556-2.646,2.548V53.735z"/>
		<path fill="#863E92" d="M198.363,59.092V41.003h4.436l5.631,10.721h0.062V41.003h3.699v18.088h-3.877l-6.195-11.673h-0.053v11.673
			H198.363z"/>
		<path fill="#863E92" d="M217.92,41.003h5.64c4.64,0,7.232,1.704,7.403,6.263v5.562c-0.171,4.567-2.764,6.263-7.403,6.263h-5.64
			V41.003z M221.971,56.041h1.42c2.226,0,3.521-0.905,3.521-3.606V47.67c0-2.558-1.001-3.607-3.521-3.607h-1.42V56.041z"/>
		<path fill="#863E92" d="M234.662,59.092l5.257-18.088h5.2l5.113,18.088h-3.879l-1.028-3.804h-5.612l-1.146,3.804H234.662z
			 M240.455,52.236h4.021l-1.965-7.321h-0.062L240.455,52.236z"/>
		<path fill="#863E92" d="M264.943,41.003v3.06h-4.729v15.029h-4.048V44.063h-4.729v-3.06H264.943z"/>
		<path fill="#863E92" d="M269.44,59.092V46.584h4.049v12.507H269.44z"/>
		<path fill="#863E92" d="M278.871,46.817c0-4.46,2.759-6.065,6.694-6.065c3.933,0,6.695,1.605,6.695,6.065v6.468
			c0,4.46-2.763,6.067-6.695,6.067c-3.936,0-6.694-1.606-6.694-6.067V46.817z M282.918,53.735c0,2,1.028,2.556,2.647,2.556
			c1.618,0,2.645-0.556,2.645-2.556v-7.376c0-1.992-1.026-2.548-2.645-2.548c-1.619,0-2.647,0.556-2.647,2.548V53.735z"/>
		<path fill="#863E92" d="M297.639,59.092V41.003h4.434l5.642,10.721h0.053V41.003h3.702v18.088h-3.882l-6.192-11.673h-0.054v11.673
			H297.639z"/>
	</g>
	<g>
		<path fill="#E80E8A" d="M271.184,31.905h0.268c0,0.107,0.146,0.25,0.438,0.44c0.205,0.368,0.385,0.574,0.554,0.6l0.106,0.224
			h-0.16v0.117c0.081,0,0.187,0.053,0.323,0.161c0.07-0.036,0.141-0.054,0.222-0.054c0,0.098,0.099,0.233,0.287,0.377
			c0,0.052,0.106,0.143,0.329,0.296c0.385,0.502,0.753,0.763,1.093,0.763h0.223c0.106-0.108,0.526-0.279,1.276-0.494
			c0.306-0.188,0.708-0.349,1.208-0.502c0.349-0.25,0.642-0.386,0.884-0.386c0.162-0.151,0.331-0.224,0.502-0.224h0.054v0.224
			c-0.045,0-0.144,0.108-0.277,0.324l0.16,0.125h0.063c0-0.152,0.142-0.223,0.437-0.223c0,0.035,0.02,0.053,0.062,0.053v-0.332
			c-0.15,0-0.223-0.054-0.223-0.17v-0.107c0-0.062,0.349-0.171,1.046-0.333c0-0.153,0.365-0.278,1.107-0.394l0.109,0.18v0.161
			c-0.171,0-0.314,0.161-0.449,0.493c-0.268,0.404-0.49,0.628-0.661,0.673l0.054,0.099c0,0.17-0.194,0.395-0.607,0.673
			c-0.133,0.278-0.286,0.466-0.438,0.556c0-0.152-0.043-0.214-0.106-0.214v0.375h-0.116v-0.107
			c-0.072,0.009-0.106,0.046-0.106,0.107c0.07,0.037,0.124,0.064,0.169,0.064c-0.562,0.69-0.886,1.042-0.947,1.042v-0.1h-0.109
			v0.053l0.058,0.27c-0.092,0-0.216,0.136-0.385,0.387c-0.19,0.054-0.278,0.232-0.278,0.556c0.054,0.188,0.278,0.368,0.663,0.556
			c0,0.044,0.259,0.287,0.776,0.718c0,0.099,0.295,0.359,0.875,0.772c0.109,0,0.368,0.243,0.778,0.726v0.333h0.115l0.107-0.055
			l-0.062-0.107v-0.053h0.118c0,0.07,0.222,0.377,0.66,0.879v0.224c-0.331,0.215-0.624,0.333-0.885,0.333
			c-0.18,0-0.679-0.054-1.484-0.162l-0.115,0.044c-0.026,0-0.216-0.071-0.546-0.215c-0.588-0.053-0.885-0.126-0.885-0.224
			c0.036-0.072,0.053-0.126,0.053-0.171h-0.169v0.171h-0.385c-0.09-0.081-0.678-0.224-1.769-0.448
			c-0.143-0.018-0.225-0.108-0.225-0.27c-0.098,0.1-0.277,0.17-0.536,0.225c-0.152,0.188-0.223,0.314-0.223,0.377l-0.278-0.054
			c0,0.09,0.02,0.162,0.056,0.225c-0.27,0.583-0.699,1.131-1.278,1.661c0,0.117-0.456,0.618-1.38,1.506h-0.043
			c-0.275,0-0.464-0.483-0.554-1.444c0-0.565,0.071-1.337,0.223-2.333v-0.547h0.109c-0.062-0.188-0.287-0.35-0.672-0.502h-0.216
			c-0.355,0-0.65-0.073-0.883-0.225l-0.107,0.054c-0.368-0.134-1.001-0.305-1.878-0.502c-0.394-0.153-0.615-0.332-0.66-0.539v-0.063
			c0.376-0.402,0.716-0.609,1.043-0.609c0.064-0.082,0.404-0.234,1.048-0.439l0.939-0.503c0.778-0.233,1.161-0.583,1.161-1.05
			c-0.081,0-0.107-0.036-0.107-0.116c0-0.073,0.054-0.108,0.161-0.108V35.61h-0.107v-0.161c0-0.144-0.027-0.305-0.054-0.512
			c0.071-0.117,0.107-0.225,0.107-0.323v-1.104l0.054-0.117c-0.071,0-0.107-0.036-0.107-0.107v-0.17
			c0-0.476,0.107-0.727,0.323-0.727v-0.108l-0.107,0.063h-0.047V32.12C270.959,32.067,271.031,31.986,271.184,31.905z
			 M270.621,36.992c0,0.17-0.02,0.279-0.056,0.332l0.171,0.118h0.27l0.107,0.278h0.115c0-0.17,0.018-0.278,0.062-0.333
			c-0.16,0-0.34-0.134-0.554-0.395H270.621z M270.959,42.08v0.071c0.09,0.179,0.162,0.27,0.225,0.27l0.32-0.153
			c0-0.234-0.106-0.341-0.32-0.341h-0.07C271.068,41.928,271.015,41.99,270.959,42.08z M271.113,34.284
			c0,0.107-0.039,0.161-0.107,0.161l0.062,0.107l-0.062,0.386l0.107,0.073c0.079,0,0.115-0.045,0.115-0.118v-0.501
			C271.229,34.319,271.192,34.284,271.113,34.284z M271.333,33.996l0.064,0.341h0.106v-0.17
			C271.504,34.113,271.451,34.059,271.333,33.996z M271.504,34.391v0.054l0.276,0.062h0.056c0-0.053-0.056-0.116-0.169-0.17
			C271.597,34.372,271.552,34.391,271.504,34.391z M271.667,36.885c0.034,0.063,0.062,0.134,0.062,0.216h0.161v-0.055
			c0-0.027-0.018-0.178-0.054-0.439c0.079,0,0.106-0.036,0.106-0.116c-0.036-0.063-0.053-0.118-0.053-0.154h-0.054
			C271.766,36.337,271.701,36.508,271.667,36.885z M271.78,33.897v0.054c0,0.044,0.056,0.108,0.162,0.162h0.172v-0.045
			c-0.101-0.189-0.172-0.278-0.225-0.296C271.818,33.799,271.78,33.834,271.78,33.897z M272.219,41.703
			c0.146,0,0.252,0.045,0.331,0.117h0.064v-0.117h0.054l0.106,0.054v-0.108l-0.331-0.116
			C272.3,41.596,272.219,41.649,272.219,41.703z M272.508,34.892c0,0.09-0.054,0.207-0.172,0.333v0.054
			c0.009,0.073,0.054,0.107,0.107,0.107h0.106c0-0.107,0.081-0.161,0.225-0.161v-0.333H272.508z M272.828,38.321
			c0,0.098-0.07,0.206-0.214,0.333v0.116h0.16c0-0.108,0.054-0.206,0.16-0.333v-0.116H272.828z M272.614,39.648v0.171
			c0.099,0,0.16,0.036,0.16,0.107c0.07-0.027,0.126-0.044,0.16-0.044v-0.063C272.854,39.819,272.747,39.765,272.614,39.648z
			 M273.991,39.433v0.772h0.107c0-0.188,0.043-0.279,0.115-0.279h0.054v-0.224l-0.054-0.27c0.034,0,0.054-0.017,0.054-0.054h-0.118
			C274.079,39.416,274.036,39.433,273.991,39.433z M275.366,40.205c0.045,0.072,0.054,0.134,0.054,0.17
			c-0.036,0.072-0.054,0.126-0.054,0.17h0.223v-0.341c0-0.072-0.034-0.099-0.115-0.099C275.411,40.106,275.366,40.15,275.366,40.205
			z M275.92,35.278l-0.053,0.107v0.279c0,0.081,0.045,0.108,0.106,0.108h0.054v-0.387C276.027,35.315,276.002,35.278,275.92,35.278z
			 M275.867,36.553c0.135,0.26,0.241,0.385,0.322,0.385v0.278c0.079,0.09,0.116,0.161,0.116,0.225c0.07,0,0.106-0.046,0.106-0.118
			l-0.162-0.61v-0.887c-0.088,0-0.187,0.207-0.276,0.618C275.893,36.454,275.867,36.491,275.867,36.553z M276.306,40.762v0.332
			h0.171l-0.064-0.332H276.306z M276.859,38.706v0.224c0.009,0.073,0.045,0.117,0.106,0.117h0.109v-0.054l-0.109-0.385
			C276.894,38.608,276.859,38.644,276.859,38.706z M278.119,39.047v0.439c0.045,0,0.098,0.018,0.171,0.062l0.062-0.117v-0.286
			c0-0.063-0.045-0.099-0.117-0.099H278.119z M278.844,41.254c0,0.028,0.054,0.09,0.169,0.171c0.062-0.036,0.117-0.054,0.16-0.054
			v-0.117H278.844z M279.013,39.765v0.118l0.16,0.224v0.322h0.171v-0.224c-0.108-0.135-0.171-0.279-0.171-0.44H279.013z"/>
	</g>
</g>
</svg>
